<svg version="1.0" xmlns="http://www.w3.org/2000/svg"
 width="142" height="24" viewBox="0 0 142 24" fill="none">

<g transform="translate(0.000000,67.000000) scale(0.100000,-0.100000)"
fill="#000000" stroke="none">
<path d="M4470 505 c-82 -82 -150 -154 -150 -161 0 -15 23 -24 61 -24 l29 0 0
-105 c0 -123 13 -166 58 -184 20 -9 75 -11 175 -9 138 3 147 4 171 27 25 24
26 28 26 148 l0 123 33 0 c66 0 67 14 5 77 -57 57 -58 60 -58 114 0 30 -5 60
-12 67 -15 15 -53 15 -80 1 -17 -9 -26 -5 -64 32 l-44 43 -150 -149z m210 50
c49 -50 60 -55 60 -25 0 15 7 20 25 20 24 0 25 -3 25 -53 0 -48 4 -57 35 -87
19 -19 35 -38 35 -42 0 -4 -107 -8 -237 -8 l-238 0 120 120 c66 66 122 120
125 120 3 0 26 -20 50 -45z m125 -341 c0 -88 -4 -126 -14 -137 -11 -15 -36
-17 -167 -17 -141 0 -154 2 -164 19 -5 11 -10 74 -10 141 l0 120 178 -2 177
-3 0 -121z"/>
<path d="M4556 275 c-12 -31 -6 -112 8 -124 9 -7 38 -11 73 -9 l58 3 0 70 0
70 -66 3 c-54 2 -68 0 -73 -13z m124 -60 l0 -45 -50 0 -50 0 0 45 0 45 50 0
50 0 0 -45z"/>
<path d="M30 289 l0 -271 143 4 c129 4 147 6 192 30 62 32 88 60 116 123 49
111 15 261 -74 326 -62 45 -124 59 -259 59 l-118 0 0 -271z m307 165 c96 -70
96 -258 0 -328 -23 -17 -47 -22 -118 -24 l-89 -4 0 192 0 192 89 -4 c71 -2 95
-7 118 -24z"/>
<path d="M2330 290 l0 -270 50 0 50 0 0 120 0 120 130 0 130 0 0 -120 0 -120
45 0 45 0 0 270 0 270 -45 0 -45 0 0 -115 0 -115 -130 0 -130 0 0 115 0 115
-50 0 -50 0 0 -270z"/>
<path d="M590 211 l0 -191 40 0 40 0 0 115 c0 128 9 154 60 175 16 7 40 10 54
6 27 -7 36 7 36 55 0 27 -3 29 -40 29 -32 0 -46 -7 -74 -35 l-35 -35 -9 32
c-7 28 -13 34 -40 36 l-32 3 0 -190z"/>
<path d="M975 386 c-127 -57 -140 -253 -23 -339 39 -29 135 -35 193 -13 59 23
70 38 48 65 l-18 22 -49 -21 c-33 -15 -58 -20 -81 -16 -40 8 -85 57 -85 92 l0
24 125 0 125 0 0 48 c0 90 -64 152 -155 152 -27 -1 -63 -7 -80 -14z m114 -57
c30 -11 51 -35 51 -58 0 -7 -33 -11 -90 -11 -98 0 -110 8 -67 47 37 34 58 38
106 22z"/>
<path d="M1365 386 c-16 -8 -39 -20 -49 -28 -19 -15 -19 -15 2 -36 l21 -21 46
20 c74 33 125 11 125 -54 0 -23 -5 -25 -57 -32 -150 -17 -218 -111 -138 -191
32 -32 114 -34 165 -3 l34 21 14 -21 c9 -14 25 -21 44 -21 l30 0 -4 143 c-5
157 -13 186 -63 217 -38 24 -124 26 -170 6z m145 -241 c0 -29 -6 -39 -32 -55
-41 -25 -69 -25 -98 -2 -46 37 8 91 93 92 36 0 37 -1 37 -35z"/>
<path d="M1700 210 l0 -190 40 0 40 0 0 138 c0 127 2 140 20 157 28 25 88 25
106 0 10 -14 14 -55 14 -157 l0 -138 45 0 45 0 0 139 c0 111 3 143 15 155 24
23 52 28 82 14 l28 -13 3 -148 3 -147 45 0 46 0 -4 153 c-3 165 -11 192 -64
215 -55 26 -149 6 -173 -35 -8 -15 -12 -14 -39 15 -36 39 -90 43 -137 12 -37
-25 -41 -25 -48 0 -4 15 -14 20 -36 20 l-31 0 0 -190z"/>
<path d="M2975 386 c-107 -47 -138 -212 -58 -307 77 -91 241 -76 301 26 32 56
29 174 -6 223 -47 65 -159 92 -237 58z m147 -73 c42 -38 46 -147 7 -197 -40
-51 -130 -40 -155 20 -17 40 -18 99 -3 144 20 56 105 75 151 33z"/>
<path d="M3330 210 l0 -190 40 0 40 0 0 140 0 140 33 20 c35 23 74 19 95 -7 8
-12 12 -60 12 -155 l0 -138 45 0 45 0 0 139 c0 139 0 140 26 160 33 26 55 26
85 2 23 -18 24 -26 27 -160 l4 -141 39 0 39 0 0 140 c0 159 -11 199 -59 224
-59 31 -140 16 -177 -32 -8 -12 -16 -9 -41 17 -38 38 -96 43 -136 11 -14 -11
-30 -20 -35 -20 -5 0 -12 9 -15 20 -4 15 -14 20 -36 20 l-31 0 0 -190z"/>
<path d="M4025 377 c-59 -33 -87 -93 -83 -178 4 -81 33 -130 96 -160 57 -28
151 -24 205 10 36 22 36 23 20 47 -11 17 -21 23 -32 18 -72 -31 -97 -35 -134
-24 -39 11 -61 37 -72 82 l-7 27 128 3 129 3 0 50 c-1 91 -62 145 -162 145
-31 0 -62 -8 -88 -23z m156 -63 c9 -8 19 -24 22 -35 5 -18 -1 -19 -89 -19
l-94 0 12 26 c23 51 107 66 149 28z"/>
</g>
</svg>
